<svg width="101" height="35" viewBox="0 0 101 35" fill="none" xmlns="http://www.w3.org/2000/svg">
<path d="M22.6667 10.6667C10.6667 13.3333 7.86675 21.56 5.09341 28.4533L7.61341 29.3333L8.88008 26.2667C9.52008 26.4933 10.1867 26.6667 10.6667 26.6667C25.3334 26.6667 29.3334 4 29.3334 4C28.0001 6.66667 18.6667 7 12.0001 8.33333C5.33341 9.66667 2.66675 15.3333 2.66675 18C2.66675 20.6667 5.00008 23 5.00008 23C9.33342 10.6667 22.6667 10.6667 22.6667 10.6667Z" fill="#F8F8F8"/>
<path d="M44.642 15H42.392L46.4886 3.36364H49.0909L53.1932 15H50.9432L47.8352 5.75H47.7443L44.642 15ZM44.7159 10.4375H50.8523V12.1307H44.7159V10.4375ZM56.1863 15.1761C55.6333 15.1761 55.1352 15.0777 54.692 14.8807C54.2526 14.6799 53.9041 14.3845 53.6465 13.9943C53.3927 13.6042 53.2659 13.1231 53.2659 12.5511C53.2659 12.0587 53.3568 11.6515 53.5386 11.3295C53.7204 11.0076 53.9685 10.75 54.2829 10.5568C54.5973 10.3636 54.9515 10.2178 55.3454 10.1193C55.7431 10.017 56.1541 9.94318 56.5784 9.89773C57.0897 9.8447 57.5045 9.79735 57.8227 9.75568C58.1409 9.71023 58.3719 9.64205 58.5159 9.55114C58.6636 9.45644 58.7374 9.31061 58.7374 9.11364V9.07955C58.7374 8.65152 58.6105 8.32008 58.3568 8.08523C58.103 7.85038 57.7374 7.73295 57.2602 7.73295C56.7564 7.73295 56.3568 7.8428 56.0613 8.0625C55.7696 8.2822 55.5727 8.54167 55.4704 8.84091L53.5499 8.56818C53.7015 8.03788 53.9515 7.5947 54.2999 7.23864C54.6484 6.87879 55.0746 6.60985 55.5784 6.43182C56.0821 6.25 56.639 6.15909 57.2488 6.15909C57.6693 6.15909 58.0878 6.20833 58.5045 6.30682C58.9212 6.4053 59.3018 6.56818 59.6465 6.79545C59.9912 7.01894 60.2677 7.32386 60.4761 7.71023C60.6882 8.09659 60.7943 8.57955 60.7943 9.15909V15H58.817V13.8011H58.7488C58.6238 14.0436 58.4477 14.2708 58.2204 14.483C57.9969 14.6913 57.7147 14.8598 57.3738 14.9886C57.0367 15.1136 56.6409 15.1761 56.1863 15.1761ZM56.7204 13.6648C57.1333 13.6648 57.4912 13.5833 57.7943 13.4205C58.0973 13.2538 58.3302 13.0341 58.4931 12.7614C58.6598 12.4886 58.7431 12.1913 58.7431 11.8693V10.8409C58.6787 10.8939 58.5689 10.9432 58.4136 10.9886C58.2621 11.0341 58.0916 11.0739 57.9022 11.108C57.7128 11.142 57.5253 11.1723 57.3397 11.1989C57.1541 11.2254 56.9931 11.2481 56.8568 11.267C56.5499 11.3087 56.2753 11.3769 56.0329 11.4716C55.7905 11.5663 55.5992 11.6989 55.459 11.8693C55.3189 12.036 55.2488 12.2519 55.2488 12.517C55.2488 12.8958 55.3871 13.1818 55.6636 13.375C55.9401 13.5682 56.2924 13.6648 56.7204 13.6648ZM61.9024 15V6.27273H63.8968V7.72727H63.9877C64.1468 7.22348 64.4195 6.83523 64.8059 6.5625C65.196 6.28598 65.6411 6.14773 66.1411 6.14773C66.2547 6.14773 66.3816 6.15341 66.5218 6.16477C66.6657 6.17235 66.785 6.18561 66.8797 6.20455V8.09659C66.7926 8.06629 66.6543 8.03977 66.4649 8.01705C66.2793 7.99053 66.0994 7.97727 65.9252 7.97727C65.5502 7.97727 65.213 8.05871 64.9138 8.22159C64.6184 8.38068 64.3854 8.60227 64.2149 8.88636C64.0445 9.17045 63.9593 9.49811 63.9593 9.86932V15H61.9024ZM69.6413 15.1761C69.0883 15.1761 68.5902 15.0777 68.147 14.8807C67.7076 14.6799 67.3591 14.3845 67.1015 13.9943C66.8477 13.6042 66.7209 13.1231 66.7209 12.5511C66.7209 12.0587 66.8118 11.6515 66.9936 11.3295C67.1754 11.0076 67.4235 10.75 67.7379 10.5568C68.0523 10.3636 68.4065 10.2178 68.8004 10.1193C69.1981 10.017 69.6091 9.94318 70.0334 9.89773C70.5447 9.8447 70.9595 9.79735 71.2777 9.75568C71.5959 9.71023 71.8269 9.64205 71.9709 9.55114C72.1186 9.45644 72.1924 9.31061 72.1924 9.11364V9.07955C72.1924 8.65152 72.0656 8.32008 71.8118 8.08523C71.558 7.85038 71.1924 7.73295 70.7152 7.73295C70.2114 7.73295 69.8118 7.8428 69.5163 8.0625C69.2246 8.2822 69.0277 8.54167 68.9254 8.84091L67.0049 8.56818C67.1565 8.03788 67.4065 7.5947 67.7549 7.23864C68.1034 6.87879 68.5296 6.60985 69.0334 6.43182C69.5371 6.25 70.094 6.15909 70.7038 6.15909C71.1243 6.15909 71.5428 6.20833 71.9595 6.30682C72.3762 6.4053 72.7568 6.56818 73.1015 6.79545C73.4462 7.01894 73.7227 7.32386 73.9311 7.71023C74.1432 8.09659 74.2493 8.57955 74.2493 9.15909V15H72.272V13.8011H72.2038C72.0788 14.0436 71.9027 14.2708 71.6754 14.483C71.4519 14.6913 71.1697 14.8598 70.8288 14.9886C70.4917 15.1136 70.0959 15.1761 69.6413 15.1761ZM70.1754 13.6648C70.5883 13.6648 70.9462 13.5833 71.2493 13.4205C71.5523 13.2538 71.7852 13.0341 71.9481 12.7614C72.1148 12.4886 72.1981 12.1913 72.1981 11.8693V10.8409C72.1337 10.8939 72.0239 10.9432 71.8686 10.9886C71.7171 11.0341 71.5466 11.0739 71.3572 11.108C71.1678 11.142 70.9803 11.1723 70.7947 11.1989C70.6091 11.2254 70.4481 11.2481 70.3118 11.267C70.0049 11.3087 69.7303 11.3769 69.4879 11.4716C69.2455 11.5663 69.0542 11.6989 68.914 11.8693C68.7739 12.036 68.7038 12.2519 68.7038 12.517C68.7038 12.8958 68.8421 13.1818 69.1186 13.375C69.3951 13.5682 69.7474 13.6648 70.1754 13.6648ZM77.4143 3.36364V15H75.3574V3.36364H77.4143ZM81.0807 15.1761C80.5277 15.1761 80.0295 15.0777 79.5864 14.8807C79.147 14.6799 78.7985 14.3845 78.5409 13.9943C78.2871 13.6042 78.1602 13.1231 78.1602 12.5511C78.1602 12.0587 78.2511 11.6515 78.433 11.3295C78.6148 11.0076 78.8629 10.75 79.1773 10.5568C79.4917 10.3636 79.8458 10.2178 80.2398 10.1193C80.6375 10.017 81.0485 9.94318 81.4727 9.89773C81.9841 9.8447 82.3989 9.79735 82.717 9.75568C83.0352 9.71023 83.2663 9.64205 83.4102 9.55114C83.558 9.45644 83.6318 9.31061 83.6318 9.11364V9.07955C83.6318 8.65152 83.5049 8.32008 83.2511 8.08523C82.9973 7.85038 82.6318 7.73295 82.1545 7.73295C81.6508 7.73295 81.2511 7.8428 80.9557 8.0625C80.664 8.2822 80.467 8.54167 80.3648 8.84091L78.4443 8.56818C78.5958 8.03788 78.8458 7.5947 79.1943 7.23864C79.5428 6.87879 79.9689 6.60985 80.4727 6.43182C80.9765 6.25 81.5333 6.15909 82.1432 6.15909C82.5636 6.15909 82.9822 6.20833 83.3989 6.30682C83.8155 6.4053 84.1962 6.56818 84.5409 6.79545C84.8856 7.01894 85.1621 7.32386 85.3705 7.71023C85.5826 8.09659 85.6886 8.57955 85.6886 9.15909V15H83.7114V13.8011H83.6432C83.5182 14.0436 83.342 14.2708 83.1148 14.483C82.8913 14.6913 82.6091 14.8598 82.2682 14.9886C81.9311 15.1136 81.5352 15.1761 81.0807 15.1761ZM81.6148 13.6648C82.0277 13.6648 82.3856 13.5833 82.6886 13.4205C82.9917 13.2538 83.2246 13.0341 83.3875 12.7614C83.5542 12.4886 83.6375 12.1913 83.6375 11.8693V10.8409C83.5731 10.8939 83.4633 10.9432 83.308 10.9886C83.1564 11.0341 82.986 11.0739 82.7966 11.108C82.6072 11.142 82.4197 11.1723 82.2341 11.1989C82.0485 11.2254 81.8875 11.2481 81.7511 11.267C81.4443 11.3087 81.1697 11.3769 80.9273 11.4716C80.6848 11.5663 80.4936 11.6989 80.3534 11.8693C80.2133 12.036 80.1432 12.2519 80.1432 12.517C80.1432 12.8958 80.2814 13.1818 80.558 13.375C80.8345 13.5682 81.1867 13.6648 81.6148 13.6648ZM86.7968 15V6.27273H88.7627V7.75568H88.865C89.0468 7.25568 89.348 6.86553 89.7684 6.58523C90.1889 6.30114 90.6908 6.15909 91.2741 6.15909C91.865 6.15909 92.3631 6.30303 92.7684 6.59091C93.1775 6.875 93.4654 7.26326 93.632 7.75568H93.723C93.9161 7.27083 94.2419 6.88447 94.7002 6.59659C95.1624 6.30492 95.7097 6.15909 96.3423 6.15909C97.1453 6.15909 97.8006 6.41288 98.3082 6.92045C98.8158 7.42803 99.0695 8.16856 99.0695 9.14205V15H97.007V9.46023C97.007 8.91856 96.8631 8.52273 96.5752 8.27273C96.2874 8.01894 95.9351 7.89205 95.5184 7.89205C95.0222 7.89205 94.6339 8.04735 94.3536 8.35795C94.0771 8.66477 93.9389 9.06439 93.9389 9.55682V15H91.9218V9.375C91.9218 8.92424 91.7855 8.56439 91.5127 8.29545C91.2438 8.02651 90.8915 7.89205 90.4559 7.89205C90.1605 7.89205 89.8915 7.9678 89.6491 8.11932C89.4067 8.26705 89.2135 8.47727 89.0695 8.75C88.9256 9.01894 88.8536 9.33333 88.8536 9.69318V15H86.7968Z" fill="white"/>
<path d="M43.1477 31V19.3636H50.6023V21.1307H45.2557V24.2898H50.0909V26.0568H45.2557V31H43.1477ZM53.9051 31.1761C53.352 31.1761 52.8539 31.0777 52.4107 30.8807C51.9713 30.6799 51.6229 30.3845 51.3653 29.9943C51.1115 29.6042 50.9846 29.1231 50.9846 28.5511C50.9846 28.0587 51.0755 27.6515 51.2573 27.3295C51.4391 27.0076 51.6873 26.75 52.0016 26.5568C52.316 26.3636 52.6702 26.2178 53.0641 26.1193C53.4619 26.017 53.8729 25.9432 54.2971 25.8977C54.8085 25.8447 55.2232 25.7973 55.5414 25.7557C55.8596 25.7102 56.0907 25.642 56.2346 25.5511C56.3823 25.4564 56.4562 25.3106 56.4562 25.1136V25.0795C56.4562 24.6515 56.3293 24.3201 56.0755 24.0852C55.8217 23.8504 55.4562 23.733 54.9789 23.733C54.4751 23.733 54.0755 23.8428 53.7801 24.0625C53.4884 24.2822 53.2914 24.5417 53.1891 24.8409L51.2687 24.5682C51.4202 24.0379 51.6702 23.5947 52.0187 23.2386C52.3672 22.8788 52.7933 22.6098 53.2971 22.4318C53.8009 22.25 54.3577 22.1591 54.9676 22.1591C55.388 22.1591 55.8066 22.2083 56.2232 22.3068C56.6399 22.4053 57.0206 22.5682 57.3653 22.7955C57.71 23.0189 57.9865 23.3239 58.1948 23.7102C58.407 24.0966 58.513 24.5795 58.513 25.1591V31H56.5357V29.8011H56.4676C56.3426 30.0436 56.1664 30.2708 55.9391 30.483C55.7157 30.6913 55.4335 30.8598 55.0926 30.9886C54.7554 31.1136 54.3596 31.1761 53.9051 31.1761ZM54.4391 29.6648C54.852 29.6648 55.21 29.5833 55.513 29.4205C55.816 29.2538 56.049 29.0341 56.2119 28.7614C56.3785 28.4886 56.4619 28.1913 56.4619 27.8693V26.8409C56.3975 26.8939 56.2876 26.9432 56.1323 26.9886C55.9808 27.0341 55.8104 27.0739 55.621 27.108C55.4316 27.142 55.2441 27.1723 55.0585 27.1989C54.8729 27.2254 54.7119 27.2481 54.5755 27.267C54.2687 27.3087 53.9941 27.3769 53.7516 27.4716C53.5092 27.5663 53.3179 27.6989 53.1778 27.8693C53.0376 28.036 52.9676 28.2519 52.9676 28.517C52.9676 28.8958 53.1058 29.1818 53.3823 29.375C53.6588 29.5682 54.0111 29.6648 54.4391 29.6648ZM59.6212 31V22.2727H61.6155V23.7273H61.7064C61.8655 23.2235 62.1382 22.8352 62.5246 22.5625C62.9148 22.286 63.3598 22.1477 63.8598 22.1477C63.9735 22.1477 64.1004 22.1534 64.2405 22.1648C64.3845 22.1723 64.5038 22.1856 64.5985 22.2045V24.0966C64.5113 24.0663 64.3731 24.0398 64.1837 24.017C63.9981 23.9905 63.8182 23.9773 63.6439 23.9773C63.2689 23.9773 62.9318 24.0587 62.6326 24.2216C62.3371 24.3807 62.1041 24.6023 61.9337 24.8864C61.7632 25.1705 61.678 25.4981 61.678 25.8693V31H59.6212ZM65.0049 31V22.2727H66.9709V23.7557H67.0731C67.2549 23.2557 67.5561 22.8655 67.9765 22.5852C68.397 22.3011 68.8989 22.1591 69.4822 22.1591C70.0731 22.1591 70.5712 22.303 70.9765 22.5909C71.3856 22.875 71.6735 23.2633 71.8402 23.7557H71.9311C72.1243 23.2708 72.45 22.8845 72.9084 22.5966C73.3705 22.3049 73.9178 22.1591 74.5504 22.1591C75.3534 22.1591 76.0087 22.4129 76.5163 22.9205C77.0239 23.428 77.2777 24.1686 77.2777 25.142V31H75.2152V25.4602C75.2152 24.9186 75.0712 24.5227 74.7834 24.2727C74.4955 24.0189 74.1432 23.892 73.7265 23.892C73.2303 23.892 72.8421 24.0473 72.5618 24.358C72.2852 24.6648 72.147 25.0644 72.147 25.5568V31H70.1299V25.375C70.1299 24.9242 69.9936 24.5644 69.7209 24.2955C69.4519 24.0265 69.0996 23.892 68.664 23.892C68.3686 23.892 68.0996 23.9678 67.8572 24.1193C67.6148 24.267 67.4216 24.4773 67.2777 24.75C67.1337 25.0189 67.0618 25.3333 67.0618 25.6932V31H65.0049Z" fill="white"/>
</svg>
